<svg width="135" height="94" viewBox="0 0 135 94" fill="none" xmlns="http://www.w3.org/2000/svg">
<path d="M130 88.6101V3.65892V2.65358C124 1.61011 121.928 6.09884 118.5 9.62928C115 13.6283 110 22.6261 96.552 22.2577C94.5 21.6264 89.9638 20.247 81.8552 18.739C69 16.6101 60.5407 39.5887 57.5 43.6101C54.4593 47.6314 50.0727 48.6198 48.5455 48.6198C47.0182 48.6198 42.4271 47.62 40.4 47.62C29.048 47.2179 20.7029 56.7743 18 61.4659V88.6101H130Z" fill="url(#paint0_linear_2346_11167)"/>
<path d="M17.6799 64.3786L21.2678 62.4309L19.3201 58.843L15.7322 60.7907L17.6799 64.3786ZM40 47.1108V46.6108H39.9857L39.9715 46.6116L40 47.1108ZM61.5 37.6108L61.076 37.3458L61.0717 37.3527L61.0676 37.3597L61.5 37.6108ZM84.5 19.1108L84.337 19.5835L84.4162 19.6108H84.5V19.1108ZM115 13.1108L114.605 12.8047L115 13.1108ZM130.5 3.11074L130.748 2.67662L130.719 2.66012L130.688 2.64759L130.5 3.11074ZM134.006 1.67848L130.068 0.604321L128.994 4.54296L132.932 5.61711L134.006 1.67848ZM18.9794 61.7528C20.2619 57.4242 26.2695 48.3962 40.0285 47.61L39.9715 46.6116C25.7305 47.4254 19.4047 56.7973 18.0206 61.4687L18.9794 61.7528ZM40 47.6108C41.3092 47.6108 42.7042 47.9676 44.3141 48.296C45.8951 48.6185 47.6331 48.8986 49.4984 48.6696C53.2795 48.2052 57.3925 45.6806 61.9324 37.8618L61.0676 37.3597C56.6075 45.0409 52.7205 47.2663 49.3766 47.677C47.6794 47.8854 46.0737 47.6343 44.514 47.3162C42.9833 47.004 41.4408 46.6108 40 46.6108V47.6108ZM61.924 37.8758C62.2542 37.3475 62.6333 36.5791 63.0627 35.6773C63.4973 34.765 63.9895 33.703 64.5578 32.5507C65.6934 30.2484 67.1141 27.6259 68.8975 25.2891C70.6823 22.9504 72.809 20.9263 75.3457 19.7855C77.8669 18.6517 80.8288 18.3737 84.337 19.5835L84.663 18.6381C80.9212 17.3478 77.6956 17.6323 74.9356 18.8735C72.191 20.1077 69.9427 22.2712 68.1025 24.6824C66.2609 27.0956 64.8066 29.7856 63.661 32.1083C63.0887 33.2686 62.5887 34.3471 62.1599 35.2473C61.7261 36.1581 61.3708 36.8741 61.076 37.3458L61.924 37.8758ZM84.5 19.6108C84.8542 19.6108 85.4046 19.7362 86.1802 19.9678C86.9507 20.1979 87.8416 20.4994 88.9063 20.8304C91.0041 21.4825 93.6244 22.1987 96.5242 22.4218C102.357 22.8705 109.279 21.3168 115.395 13.4168L114.605 12.8047C108.721 20.4047 102.143 21.8511 96.6008 21.4247C93.8131 21.2103 91.2772 20.5202 89.2031 19.8755C88.1819 19.558 87.2329 19.2385 86.4663 19.0096C85.7048 18.7822 85.0208 18.6108 84.5 18.6108V19.6108ZM115.395 13.4168C120.158 7.26475 123.961 4.83984 126.517 3.93192C127.795 3.47831 128.768 3.40064 129.406 3.429C129.726 3.44321 129.964 3.48416 130.116 3.51912C130.192 3.53661 130.246 3.55262 130.279 3.56311C130.296 3.56835 130.307 3.5722 130.312 3.57417C130.315 3.57515 130.316 3.57566 130.316 3.57564C130.316 3.57562 130.316 3.57548 130.315 3.57519C130.314 3.57504 130.314 3.57486 130.313 3.57465C130.313 3.57454 130.313 3.57435 130.313 3.57429C130.312 3.57409 130.312 3.57388 130.5 3.11074C130.688 2.64759 130.688 2.64736 130.687 2.64712C130.687 2.64703 130.686 2.64679 130.686 2.64661C130.685 2.64625 130.684 2.64585 130.683 2.64542C130.681 2.64456 130.678 2.64357 130.675 2.64245C130.67 2.64021 130.662 2.63747 130.654 2.63429C130.636 2.62793 130.613 2.61982 130.584 2.61051C130.525 2.59189 130.444 2.56846 130.34 2.54455C130.132 2.49669 129.834 2.44702 129.45 2.42998C128.682 2.39585 127.58 2.49318 126.183 2.98958C123.389 3.98167 119.442 6.55677 114.605 12.8047L115.395 13.4168ZM130.252 3.54486C130.343 3.59685 130.323 3.61238 130.302 3.56047C130.274 3.49394 130.289 3.43274 130.299 3.41181C130.303 3.4022 130.297 3.41814 130.262 3.44909C130.229 3.47791 130.193 3.4995 130.173 3.50902C130.162 3.5145 130.17 3.50909 130.195 3.50324C130.207 3.50048 130.24 3.49353 130.286 3.49422C130.323 3.49477 130.434 3.50026 130.549 3.58117C130.697 3.68527 130.758 3.84797 130.754 3.99026C130.751 4.1011 130.711 4.17682 130.698 4.19848C130.671 4.24736 130.647 4.26438 130.671 4.24208C130.756 4.16106 131.047 3.94528 131.748 3.54484L131.252 2.6766C130.895 2.88043 130.625 3.04704 130.423 3.18164C130.226 3.31328 130.08 3.42402 129.982 3.51688C129.939 3.55812 129.874 3.62436 129.826 3.7095C129.804 3.7493 129.758 3.83991 129.755 3.96257C129.753 4.02981 129.764 4.1123 129.804 4.1969C129.844 4.28327 129.905 4.35056 129.972 4.39811C130.095 4.48488 130.219 4.49333 130.271 4.49411C130.333 4.49504 130.385 4.4856 130.419 4.47779C130.489 4.46185 130.552 4.43614 130.602 4.41245C130.705 4.36364 130.818 4.29148 130.92 4.20207C131.02 4.1148 131.136 3.98803 131.211 3.82217C131.29 3.64499 131.324 3.41399 131.224 3.17507C131.131 2.95076 130.949 2.79129 130.748 2.67662L130.252 3.54486Z" fill="#2A85FF"/>
<mask id="mask0_2346_11167" style="mask-type:alpha" maskUnits="userSpaceOnUse" x="0" y="83" width="135" height="11">
<rect y="83.5" width="135" height="10" fill="#D9D9D9"/>
</mask>
<g mask="url(#mask0_2346_11167)">
<path d="M-9 89.6094L297 89.6094" stroke="url(#paint1_linear_2346_11167)" stroke-width="2"/>
</g>
<defs>
<linearGradient id="paint0_linear_2346_11167" x1="74" y1="2.63097" x2="74" y2="88.6101" gradientUnits="userSpaceOnUse">
<stop stop-color="#2A85FF"/>
<stop offset="1" stop-color="white" stop-opacity="0"/>
</linearGradient>
<linearGradient id="paint1_linear_2346_11167" x1="3.54098" y1="89.6098" x2="143.964" y2="92.4051" gradientUnits="userSpaceOnUse">
<stop stop-color="white"/>
<stop offset="1" stop-color="#898E95" stop-opacity="0"/>
</linearGradient>
</defs>
</svg>
