<svg width="134" height="94" viewBox="0 0 134 94" fill="none" xmlns="http://www.w3.org/2000/svg">
<path d="M123 88.6101V3.65892V2.65358C117 1.61011 114.928 6.09884 111.5 9.62928C108 13.6283 103 22.6261 89.552 22.2577C87.5 21.6264 82.9638 20.247 74.8552 18.739C62 16.6101 53.5407 39.5887 50.5 43.6101C47.4593 47.6314 43.0727 48.6198 41.5455 48.6198C40.0182 48.6198 35.4271 47.62 33.4 47.62C22.048 47.2179 13.7029 56.7743 11 61.4659V88.6101H123Z" fill="url(#paint0_linear_2346_11209)"/>
<path d="M10.6799 64.3786L14.2678 62.4309L12.3201 58.843L8.73219 60.7907L10.6799 64.3786ZM33 47.1108V46.6108H32.9857L32.9715 46.6116L33 47.1108ZM54.5 37.6108L54.076 37.3458L54.0717 37.3527L54.0676 37.3597L54.5 37.6108ZM77.5 19.1108L77.337 19.5835L77.4162 19.6108H77.5V19.1108ZM108 13.1108L107.605 12.8047L108 13.1108ZM123.5 3.11074L123.748 2.67662L123.719 2.66012L123.688 2.64759L123.5 3.11074ZM127.006 1.67848L123.068 0.604321L121.994 4.54296L125.932 5.61711L127.006 1.67848ZM11.9794 61.7528C13.2619 57.4242 19.2695 48.3962 33.0285 47.61L32.9715 46.6116C18.7305 47.4254 12.4047 56.7973 11.0206 61.4687L11.9794 61.7528ZM33 47.6108C34.3092 47.6108 35.7042 47.9676 37.3141 48.296C38.8951 48.6185 40.6331 48.8986 42.4984 48.6696C46.2795 48.2052 50.3925 45.6806 54.9324 37.8618L54.0676 37.3597C49.6075 45.0409 45.7205 47.2663 42.3766 47.677C40.6794 47.8854 39.0737 47.6343 37.514 47.3162C35.9833 47.004 34.4408 46.6108 33 46.6108V47.6108ZM54.924 37.8758C55.2542 37.3475 55.6333 36.5791 56.0627 35.6773C56.4973 34.765 56.9895 33.703 57.5578 32.5507C58.6934 30.2484 60.1141 27.6259 61.8975 25.2891C63.6823 22.9504 65.809 20.9263 68.3457 19.7855C70.8669 18.6517 73.8288 18.3737 77.337 19.5835L77.663 18.6381C73.9212 17.3478 70.6956 17.6323 67.9356 18.8735C65.191 20.1077 62.9427 22.2712 61.1025 24.6824C59.2609 27.0956 57.8066 29.7856 56.661 32.1083C56.0887 33.2686 55.5887 34.3471 55.1599 35.2473C54.7261 36.1581 54.3708 36.8741 54.076 37.3458L54.924 37.8758ZM77.5 19.6108C77.8542 19.6108 78.4046 19.7362 79.1802 19.9678C79.9507 20.1979 80.8416 20.4994 81.9063 20.8304C84.0041 21.4825 86.6244 22.1987 89.5242 22.4218C95.3569 22.8705 102.279 21.3168 108.395 13.4168L107.605 12.8047C101.721 20.4047 95.1431 21.8511 89.6008 21.4247C86.8131 21.2103 84.2772 20.5202 82.2031 19.8755C81.1819 19.558 80.2329 19.2385 79.4663 19.0096C78.7048 18.7822 78.0208 18.6108 77.5 18.6108V19.6108ZM108.395 13.4168C113.158 7.26475 116.961 4.83984 119.517 3.93192C120.795 3.47831 121.768 3.40064 122.406 3.429C122.726 3.44321 122.964 3.48416 123.116 3.51912C123.192 3.53661 123.246 3.55262 123.279 3.56311C123.296 3.56835 123.307 3.5722 123.312 3.57417C123.315 3.57515 123.316 3.57566 123.316 3.57564C123.316 3.57562 123.316 3.57548 123.315 3.57519C123.314 3.57504 123.314 3.57486 123.313 3.57465C123.313 3.57454 123.313 3.57435 123.313 3.57429C123.312 3.57409 123.312 3.57388 123.5 3.11074C123.688 2.64759 123.688 2.64736 123.687 2.64712C123.687 2.64703 123.686 2.64679 123.686 2.64661C123.685 2.64625 123.684 2.64585 123.683 2.64542C123.681 2.64456 123.678 2.64357 123.675 2.64245C123.67 2.64021 123.662 2.63747 123.654 2.63429C123.636 2.62793 123.613 2.61982 123.584 2.61051C123.525 2.59189 123.444 2.56846 123.34 2.54455C123.132 2.49669 122.834 2.44702 122.45 2.42998C121.682 2.39585 120.58 2.49318 119.183 2.98958C116.389 3.98167 112.442 6.55677 107.605 12.8047L108.395 13.4168ZM123.252 3.54486C123.343 3.59685 123.323 3.61238 123.302 3.56047C123.274 3.49394 123.289 3.43274 123.299 3.41181C123.303 3.4022 123.297 3.41814 123.262 3.44909C123.229 3.47791 123.193 3.4995 123.173 3.50902C123.162 3.5145 123.17 3.50909 123.195 3.50324C123.207 3.50048 123.24 3.49353 123.286 3.49422C123.323 3.49477 123.434 3.50026 123.549 3.58117C123.697 3.68527 123.758 3.84797 123.754 3.99026C123.751 4.1011 123.711 4.17682 123.698 4.19848C123.671 4.24736 123.647 4.26438 123.671 4.24208C123.756 4.16106 124.047 3.94528 124.748 3.54484L124.252 2.6766C123.895 2.88043 123.625 3.04704 123.423 3.18164C123.226 3.31328 123.08 3.42402 122.982 3.51688C122.939 3.55812 122.874 3.62436 122.826 3.7095C122.804 3.7493 122.758 3.83991 122.755 3.96257C122.753 4.02981 122.764 4.1123 122.804 4.1969C122.844 4.28327 122.905 4.35056 122.972 4.39811C123.095 4.48488 123.219 4.49333 123.271 4.49411C123.333 4.49504 123.385 4.4856 123.419 4.47779C123.489 4.46185 123.552 4.43614 123.602 4.41245C123.705 4.36364 123.818 4.29148 123.92 4.20207C124.02 4.1148 124.136 3.98803 124.211 3.82217C124.29 3.64499 124.324 3.41399 124.224 3.17507C124.131 2.95076 123.949 2.79129 123.748 2.67662L123.252 3.54486Z" fill="#24BC73"/>
<mask id="mask0_2346_11209" style="mask-type:alpha" maskUnits="userSpaceOnUse" x="0" y="85" width="134" height="9">
<rect y="85.5" width="134" height="8" fill="#D9D9D9"/>
</mask>
<g mask="url(#mask0_2346_11209)">
<path d="M-14 89.6094L292 89.6094" stroke="url(#paint1_linear_2346_11209)" stroke-width="2"/>
</g>
<defs>
<linearGradient id="paint0_linear_2346_11209" x1="67" y1="2.63097" x2="67" y2="88.6101" gradientUnits="userSpaceOnUse">
<stop stop-color="#24BC73"/>
<stop offset="1" stop-color="white" stop-opacity="0"/>
</linearGradient>
<linearGradient id="paint1_linear_2346_11209" x1="-1.45902" y1="89.6098" x2="138.964" y2="92.4051" gradientUnits="userSpaceOnUse">
<stop stop-color="white"/>
<stop offset="1" stop-color="#898E95" stop-opacity="0"/>
</linearGradient>
</defs>
</svg>
