<svg width="134" height="94" viewBox="0 0 134 94" fill="none" xmlns="http://www.w3.org/2000/svg">
<path d="M12.5 88.6101V3.65892V2.65358C18.5 1.61011 20.5721 6.09884 24 9.62928C27.5 13.6283 32.5 22.6261 45.948 22.2577C48 21.6264 52.5362 20.247 60.6448 18.739C73.5 16.6101 81.9593 39.5887 85 43.6101C88.0407 47.6314 92.4273 48.6198 93.9545 48.6198C95.4818 48.6198 100.073 47.62 102.1 47.62C113.452 47.2179 121.797 56.7743 124.5 61.4659V88.6101H12.5Z" fill="url(#paint0_linear_2346_11188)"/>
<path d="M124.82 64.3786L121.232 62.4309L123.18 58.843L126.768 60.7907L124.82 64.3786ZM102.5 47.1108V46.6108H102.514L102.529 46.6116L102.5 47.1108ZM81 37.6108L81.424 37.3458L81.4283 37.3527L81.4324 37.3597L81 37.6108ZM58 19.1108L58.163 19.5835L58.0838 19.6108H58V19.1108ZM27.5 13.1108L27.8954 12.8047L27.5 13.1108ZM12 3.11074L11.7519 2.67662L11.7808 2.66012L11.8116 2.64759L12 3.11074ZM8.49361 1.67848L12.4322 0.604321L13.5064 4.54296L9.56776 5.61711L8.49361 1.67848ZM123.521 61.7528C122.238 57.4242 116.231 48.3962 102.471 47.61L102.529 46.6116C116.769 47.4254 123.095 56.7973 124.479 61.4687L123.521 61.7528ZM102.5 47.6108C101.191 47.6108 99.7958 47.9676 98.1859 48.296C96.6049 48.6185 94.8669 48.8986 93.0016 48.6696C89.2205 48.2052 85.1075 45.6806 80.5676 37.8618L81.4324 37.3597C85.8925 45.0409 89.7795 47.2663 93.1234 47.677C94.8206 47.8854 96.4263 47.6343 97.986 47.3162C99.5167 47.004 101.059 46.6108 102.5 46.6108V47.6108ZM80.576 37.8758C80.2458 37.3475 79.8667 36.5791 79.4373 35.6773C79.0027 34.765 78.5105 33.703 77.9422 32.5507C76.8066 30.2484 75.3859 27.6259 73.6025 25.2891C71.8177 22.9504 69.691 20.9263 67.1543 19.7855C64.6331 18.6517 61.6712 18.3737 58.163 19.5835L57.837 18.6381C61.5788 17.3478 64.8044 17.6323 67.5644 18.8735C70.309 20.1077 72.5573 22.2712 74.3975 24.6824C76.2391 27.0956 77.6934 29.7856 78.839 32.1083C79.4113 33.2686 79.9113 34.3471 80.3401 35.2473C80.7739 36.1581 81.1292 36.8741 81.424 37.3458L80.576 37.8758ZM58 19.6108C57.6458 19.6108 57.0954 19.7362 56.3198 19.9678C55.5493 20.1979 54.6584 20.4994 53.5937 20.8304C51.4959 21.4825 48.8756 22.1987 45.9758 22.4218C40.1431 22.8705 33.2207 21.3168 27.1046 13.4168L27.8954 12.8047C33.7793 20.4047 40.3569 21.8511 45.8992 21.4247C48.6869 21.2103 51.2228 20.5202 53.2969 19.8755C54.3181 19.558 55.2671 19.2385 56.0337 19.0096C56.7952 18.7822 57.4792 18.6108 58 18.6108V19.6108ZM27.1046 13.4168C22.3417 7.26475 18.5392 4.83984 15.9827 3.93192C14.7054 3.47831 13.7322 3.40064 13.0941 3.429C12.7742 3.44321 12.5363 3.48416 12.3843 3.51912C12.3082 3.53661 12.2535 3.55262 12.2207 3.56311C12.2043 3.56835 12.1934 3.5722 12.188 3.57417C12.1853 3.57515 12.1839 3.57566 12.184 3.57564C12.184 3.57562 12.1844 3.57548 12.1852 3.57519C12.1855 3.57504 12.186 3.57486 12.1865 3.57465C12.1868 3.57454 12.1873 3.57435 12.1874 3.57429C12.1879 3.57409 12.1884 3.57388 12 3.11074C11.8116 2.64759 11.8122 2.64736 11.8127 2.64712C11.813 2.64703 11.8136 2.64679 11.814 2.64661C11.8149 2.64625 11.8159 2.64585 11.817 2.64542C11.8192 2.64456 11.8217 2.64357 11.8246 2.64245C11.8304 2.64021 11.8377 2.63747 11.8465 2.63429C11.864 2.62793 11.8873 2.61982 11.9165 2.61051C11.9748 2.59189 12.0562 2.56846 12.1602 2.54455C12.3683 2.49669 12.6664 2.44702 13.0497 2.42998C13.8178 2.39585 14.9196 2.49318 16.3173 2.98958C19.1108 3.98167 23.0583 6.55677 27.8954 12.8047L27.1046 13.4168ZM12.2481 3.54486C12.1571 3.59685 12.1766 3.61238 12.1983 3.56047C12.2261 3.49394 12.2107 3.43274 12.2013 3.41181C12.1969 3.4022 12.2028 3.41814 12.2382 3.44909C12.2712 3.47791 12.3068 3.4995 12.3269 3.50902C12.3384 3.5145 12.3302 3.50909 12.3048 3.50324C12.2928 3.50048 12.2598 3.49353 12.2136 3.49422C12.1773 3.49477 12.0655 3.50026 11.9509 3.58117C11.8034 3.68527 11.7416 3.84797 11.7456 3.99026C11.7486 4.1011 11.7894 4.17682 11.8015 4.19848C11.8289 4.24736 11.8527 4.26438 11.8292 4.24208C11.7438 4.16106 11.4527 3.94528 10.7519 3.54484L11.2481 2.6766C11.6048 2.88043 11.8752 3.04704 12.0767 3.18164C12.2738 3.31328 12.4199 3.42402 12.5177 3.51688C12.5611 3.55812 12.6261 3.62436 12.6738 3.7095C12.6961 3.7493 12.7418 3.83991 12.7452 3.96257C12.7471 4.02981 12.7362 4.1123 12.6964 4.1969C12.6558 4.28327 12.595 4.35056 12.5276 4.39811C12.4047 4.48488 12.2806 4.49333 12.2286 4.49411C12.1667 4.49504 12.1145 4.4856 12.0806 4.47779C12.0113 4.46185 11.9481 4.43614 11.8981 4.41245C11.7953 4.36364 11.6825 4.29148 11.5802 4.20207C11.4803 4.1148 11.364 3.98803 11.2894 3.82217C11.2096 3.64499 11.1758 3.41399 11.2755 3.17507C11.3692 2.95076 11.5513 2.79129 11.7519 2.67662L12.2481 3.54486Z" fill="#FA6262"/>
<mask id="mask0_2346_11188" style="mask-type:alpha" maskUnits="userSpaceOnUse" x="0" y="85" width="134" height="9">
<rect y="85.5" width="134" height="8" fill="#D9D9D9"/>
</mask>
<g mask="url(#mask0_2346_11188)">
<path d="M-14 89.6094L292 89.6094" stroke="url(#paint1_linear_2346_11188)" stroke-width="2"/>
</g>
<defs>
<linearGradient id="paint0_linear_2346_11188" x1="68.5" y1="2.63097" x2="68.5" y2="88.6101" gradientUnits="userSpaceOnUse">
<stop stop-color="#FA6262"/>
<stop offset="1" stop-color="white" stop-opacity="0"/>
</linearGradient>
<linearGradient id="paint1_linear_2346_11188" x1="-1.45902" y1="89.6098" x2="138.964" y2="92.4051" gradientUnits="userSpaceOnUse">
<stop stop-color="white"/>
<stop offset="1" stop-color="#898E95" stop-opacity="0"/>
</linearGradient>
</defs>
</svg>
